<mxfile host="app.diagrams.net" modified="2023-04-15T23:02:16.632Z" agent="Mozilla/5.0 (Macintosh; Intel Mac OS X 10_15_7) AppleWebKit/537.36 (KHTML, like Gecko) Chrome/112.0.0.0 Safari/537.36" etag="XQUl8r7llopw__sFYSOo" version="21.1.8" type="device">
  <diagram id="DcZYCBq4A_Bf8q82gAh8" name="Page-1">
    <mxGraphModel dx="1079" dy="714" grid="1" gridSize="10" guides="1" tooltips="1" connect="1" arrows="1" fold="1" page="1" pageScale="1" pageWidth="1100" pageHeight="850" math="0" shadow="0">
      <root>
        <mxCell id="0" />
        <mxCell id="1" parent="0" />
        <mxCell id="Lyhg9dJuoTREm1i18HMX-21" value="" style="endArrow=none;html=1;rounded=0;strokeWidth=3;exitX=1;exitY=0.5;exitDx=0;exitDy=0;entryX=0;entryY=0.5;entryDx=0;entryDy=0;" parent="1" source="yQn8MfotT0m3Hae0XQfb-3" target="yQn8MfotT0m3Hae0XQfb-4" edge="1">
          <mxGeometry width="50" height="50" relative="1" as="geometry">
            <mxPoint x="892" y="400" as="sourcePoint" />
            <mxPoint x="562" y="364" as="targetPoint" />
          </mxGeometry>
        </mxCell>
        <mxCell id="Lyhg9dJuoTREm1i18HMX-20" value="" style="endArrow=none;html=1;rounded=0;strokeWidth=3;exitX=1;exitY=0;exitDx=0;exitDy=0;entryX=0;entryY=1;entryDx=0;entryDy=0;" parent="1" source="Lyhg9dJuoTREm1i18HMX-16" target="yQn8MfotT0m3Hae0XQfb-5" edge="1">
          <mxGeometry width="50" height="50" relative="1" as="geometry">
            <mxPoint x="892" y="400" as="sourcePoint" />
            <mxPoint x="942" y="350" as="targetPoint" />
          </mxGeometry>
        </mxCell>
        <mxCell id="Lyhg9dJuoTREm1i18HMX-12" value="" style="endArrow=none;html=1;rounded=0;entryX=0.5;entryY=0;entryDx=0;entryDy=0;strokeWidth=3;" parent="1" target="yQn8MfotT0m3Hae0XQfb-3" edge="1">
          <mxGeometry width="50" height="50" relative="1" as="geometry">
            <mxPoint x="442" y="246" as="sourcePoint" />
            <mxPoint x="942" y="350" as="targetPoint" />
          </mxGeometry>
        </mxCell>
        <mxCell id="yQn8MfotT0m3Hae0XQfb-58" value="&lt;font style=&quot;font-size: 25px;&quot;&gt;&lt;font face=&quot;Times New Roman&quot; style=&quot;font-size: 25px;&quot;&gt;&lt;b style=&quot;&quot;&gt;(b)&amp;nbsp;&lt;/b&gt;&lt;/font&gt;&lt;/font&gt;" style="text;html=1;align=center;verticalAlign=middle;resizable=0;points=[];autosize=1;strokeColor=none;fillColor=none;fontSize=25;" parent="1" vertex="1">
          <mxGeometry x="402" y="100" width="60" height="40" as="geometry" />
        </mxCell>
        <mxCell id="yQn8MfotT0m3Hae0XQfb-2" value="&lt;font face=&quot;Times New Roman&quot; style=&quot;font-size: 25px;&quot;&gt;&lt;b&gt;X&lt;sub&gt;1&lt;/sub&gt;&lt;/b&gt;&lt;/font&gt;" style="ellipse;whiteSpace=wrap;html=1;aspect=fixed;strokeWidth=2;" parent="1" vertex="1">
          <mxGeometry x="402" y="160" width="80" height="80" as="geometry" />
        </mxCell>
        <mxCell id="yQn8MfotT0m3Hae0XQfb-3" value="&lt;font face=&quot;Times New Roman&quot;&gt;&lt;b&gt;&lt;font style=&quot;font-size: 25px;&quot;&gt;X&lt;/font&gt;&lt;font style=&quot;font-size: 20.8333px;&quot;&gt;&lt;sub&gt;2&lt;/sub&gt;&lt;/font&gt;&lt;/b&gt;&lt;/font&gt;" style="ellipse;whiteSpace=wrap;html=1;aspect=fixed;strokeWidth=2;" parent="1" vertex="1">
          <mxGeometry x="402" y="320" width="80" height="80" as="geometry" />
        </mxCell>
        <mxCell id="yQn8MfotT0m3Hae0XQfb-4" value="&lt;font face=&quot;Times New Roman&quot; style=&quot;font-size: 25px;&quot;&gt;&lt;b&gt;X&lt;sub&gt;3&lt;/sub&gt;&lt;/b&gt;&lt;/font&gt;" style="ellipse;whiteSpace=wrap;html=1;aspect=fixed;strokeWidth=2;" parent="1" vertex="1">
          <mxGeometry x="562" y="320" width="80" height="80" as="geometry" />
        </mxCell>
        <mxCell id="yQn8MfotT0m3Hae0XQfb-5" value="&lt;font face=&quot;Times New Roman&quot; style=&quot;font-size: 25px;&quot;&gt;&lt;b&gt;X&lt;sub&gt;4&lt;/sub&gt;&lt;/b&gt;&lt;/font&gt;" style="ellipse;whiteSpace=wrap;html=1;aspect=fixed;strokeWidth=2;" parent="1" vertex="1">
          <mxGeometry x="562" y="160" width="80" height="80" as="geometry" />
        </mxCell>
        <mxCell id="Lyhg9dJuoTREm1i18HMX-1" value="" style="ellipse;whiteSpace=wrap;html=1;aspect=fixed;fontSize=25;strokeWidth=3;" parent="1" vertex="1">
          <mxGeometry x="438" y="241" width="10" height="10" as="geometry" />
        </mxCell>
        <mxCell id="Lyhg9dJuoTREm1i18HMX-3" value="" style="ellipse;whiteSpace=wrap;html=1;aspect=fixed;fontSize=25;strokeWidth=3;" parent="1" vertex="1">
          <mxGeometry x="437" y="309" width="10" height="10" as="geometry" />
        </mxCell>
        <mxCell id="Lyhg9dJuoTREm1i18HMX-5" value="" style="ellipse;whiteSpace=wrap;html=1;aspect=fixed;fontSize=25;strokeWidth=3;" parent="1" vertex="1">
          <mxGeometry x="482" y="195" width="10" height="10" as="geometry" />
        </mxCell>
        <mxCell id="Lyhg9dJuoTREm1i18HMX-6" value="" style="ellipse;whiteSpace=wrap;html=1;aspect=fixed;fontSize=25;strokeWidth=3;" parent="1" vertex="1">
          <mxGeometry x="551" y="195" width="10" height="10" as="geometry" />
        </mxCell>
        <mxCell id="Lyhg9dJuoTREm1i18HMX-7" value="" style="ellipse;whiteSpace=wrap;html=1;aspect=fixed;fontSize=25;strokeWidth=3;" parent="1" vertex="1">
          <mxGeometry x="482" y="355" width="10" height="10" as="geometry" />
        </mxCell>
        <mxCell id="Lyhg9dJuoTREm1i18HMX-8" value="" style="ellipse;whiteSpace=wrap;html=1;aspect=fixed;fontSize=25;strokeWidth=3;" parent="1" vertex="1">
          <mxGeometry x="551" y="355" width="10" height="10" as="geometry" />
        </mxCell>
        <mxCell id="Lyhg9dJuoTREm1i18HMX-9" value="" style="ellipse;whiteSpace=wrap;html=1;aspect=fixed;fontSize=25;strokeWidth=3;" parent="1" vertex="1">
          <mxGeometry x="597" y="241" width="10" height="10" as="geometry" />
        </mxCell>
        <mxCell id="Lyhg9dJuoTREm1i18HMX-10" value="" style="ellipse;whiteSpace=wrap;html=1;aspect=fixed;fontSize=25;strokeWidth=3;" parent="1" vertex="1">
          <mxGeometry x="597" y="309" width="10" height="10" as="geometry" />
        </mxCell>
        <mxCell id="Lyhg9dJuoTREm1i18HMX-13" value="" style="endArrow=none;html=1;rounded=0;strokeWidth=3;exitX=1;exitY=0.5;exitDx=0;exitDy=0;entryX=0;entryY=0.5;entryDx=0;entryDy=0;" parent="1" source="Lyhg9dJuoTREm1i18HMX-5" target="Lyhg9dJuoTREm1i18HMX-6" edge="1">
          <mxGeometry width="50" height="50" relative="1" as="geometry">
            <mxPoint x="892" y="400" as="sourcePoint" />
            <mxPoint x="942" y="350" as="targetPoint" />
          </mxGeometry>
        </mxCell>
        <mxCell id="Lyhg9dJuoTREm1i18HMX-14" value="" style="ellipse;whiteSpace=wrap;html=1;aspect=fixed;fontSize=25;strokeWidth=3;" parent="1" vertex="1">
          <mxGeometry x="469" y="227" width="10" height="10" as="geometry" />
        </mxCell>
        <mxCell id="Lyhg9dJuoTREm1i18HMX-15" value="" style="ellipse;whiteSpace=wrap;html=1;aspect=fixed;fontSize=25;strokeWidth=3;" parent="1" vertex="1">
          <mxGeometry x="561" y="325" width="10" height="10" as="geometry" />
        </mxCell>
        <mxCell id="Lyhg9dJuoTREm1i18HMX-16" value="" style="ellipse;whiteSpace=wrap;html=1;aspect=fixed;fontSize=25;strokeWidth=3;" parent="1" vertex="1">
          <mxGeometry x="472" y="326" width="10" height="10" as="geometry" />
        </mxCell>
        <mxCell id="Lyhg9dJuoTREm1i18HMX-17" value="" style="ellipse;whiteSpace=wrap;html=1;aspect=fixed;fontSize=25;strokeWidth=3;" parent="1" vertex="1">
          <mxGeometry x="564" y="227" width="10" height="10" as="geometry" />
        </mxCell>
        <mxCell id="Lyhg9dJuoTREm1i18HMX-18" value="" style="endArrow=none;html=1;rounded=0;strokeWidth=3;exitX=1;exitY=1;exitDx=0;exitDy=0;entryX=0;entryY=0.5;entryDx=0;entryDy=0;" parent="1" edge="1">
          <mxGeometry width="50" height="50" relative="1" as="geometry">
            <mxPoint x="478.53553390593265" y="236.53553390593265" as="sourcePoint" />
            <mxPoint x="562" y="329" as="targetPoint" />
          </mxGeometry>
        </mxCell>
        <mxCell id="Lyhg9dJuoTREm1i18HMX-22" value="" style="endArrow=none;html=1;rounded=0;strokeWidth=3;exitX=0.5;exitY=1;exitDx=0;exitDy=0;entryX=0.5;entryY=0;entryDx=0;entryDy=0;" parent="1" source="Lyhg9dJuoTREm1i18HMX-9" target="Lyhg9dJuoTREm1i18HMX-10" edge="1">
          <mxGeometry width="50" height="50" relative="1" as="geometry">
            <mxPoint x="892" y="400" as="sourcePoint" />
            <mxPoint x="602" y="300" as="targetPoint" />
          </mxGeometry>
        </mxCell>
        <mxCell id="Lyhg9dJuoTREm1i18HMX-47" value="" style="group" parent="1" vertex="1" connectable="0">
          <mxGeometry x="762" y="100" width="240" height="300" as="geometry" />
        </mxCell>
        <mxCell id="Lyhg9dJuoTREm1i18HMX-25" value="" style="endArrow=none;html=1;rounded=0;strokeWidth=3;exitX=1;exitY=0;exitDx=0;exitDy=0;entryX=0;entryY=1;entryDx=0;entryDy=0;" parent="Lyhg9dJuoTREm1i18HMX-47" source="Lyhg9dJuoTREm1i18HMX-43" target="Lyhg9dJuoTREm1i18HMX-31" edge="1">
          <mxGeometry width="50" height="50" relative="1" as="geometry">
            <mxPoint x="490" y="300" as="sourcePoint" />
            <mxPoint x="540" y="250" as="targetPoint" />
          </mxGeometry>
        </mxCell>
        <mxCell id="Lyhg9dJuoTREm1i18HMX-26" value="" style="endArrow=none;html=1;rounded=0;entryX=0.5;entryY=0;entryDx=0;entryDy=0;strokeWidth=3;" parent="Lyhg9dJuoTREm1i18HMX-47" target="Lyhg9dJuoTREm1i18HMX-29" edge="1">
          <mxGeometry width="50" height="50" relative="1" as="geometry">
            <mxPoint x="40" y="146" as="sourcePoint" />
            <mxPoint x="540" y="250" as="targetPoint" />
          </mxGeometry>
        </mxCell>
        <mxCell id="Lyhg9dJuoTREm1i18HMX-27" value="&lt;font style=&quot;font-size: 25px;&quot;&gt;&lt;font face=&quot;Times New Roman&quot; style=&quot;font-size: 25px;&quot;&gt;&lt;b style=&quot;&quot;&gt;(c)&amp;nbsp;&lt;/b&gt;&lt;/font&gt;&lt;/font&gt;" style="text;html=1;align=center;verticalAlign=middle;resizable=0;points=[];autosize=1;strokeColor=none;fillColor=none;fontSize=25;" parent="Lyhg9dJuoTREm1i18HMX-47" vertex="1">
          <mxGeometry width="60" height="40" as="geometry" />
        </mxCell>
        <mxCell id="Lyhg9dJuoTREm1i18HMX-28" value="&lt;font face=&quot;Times New Roman&quot; style=&quot;font-size: 25px;&quot;&gt;&lt;b&gt;X&lt;sub&gt;1&lt;/sub&gt;&lt;/b&gt;&lt;/font&gt;" style="ellipse;whiteSpace=wrap;html=1;aspect=fixed;strokeWidth=2;" parent="Lyhg9dJuoTREm1i18HMX-47" vertex="1">
          <mxGeometry y="60" width="80" height="80" as="geometry" />
        </mxCell>
        <mxCell id="Lyhg9dJuoTREm1i18HMX-29" value="&lt;font face=&quot;Times New Roman&quot;&gt;&lt;b&gt;&lt;font style=&quot;font-size: 25px;&quot;&gt;X&lt;/font&gt;&lt;font style=&quot;font-size: 20.8333px;&quot;&gt;&lt;sub&gt;2&lt;/sub&gt;&lt;/font&gt;&lt;/b&gt;&lt;/font&gt;" style="ellipse;whiteSpace=wrap;html=1;aspect=fixed;strokeWidth=2;" parent="Lyhg9dJuoTREm1i18HMX-47" vertex="1">
          <mxGeometry y="220" width="80" height="80" as="geometry" />
        </mxCell>
        <mxCell id="Lyhg9dJuoTREm1i18HMX-30" value="&lt;font face=&quot;Times New Roman&quot; style=&quot;font-size: 25px;&quot;&gt;&lt;b&gt;X&lt;sub&gt;3&lt;/sub&gt;&lt;/b&gt;&lt;/font&gt;" style="ellipse;whiteSpace=wrap;html=1;aspect=fixed;strokeWidth=2;" parent="Lyhg9dJuoTREm1i18HMX-47" vertex="1">
          <mxGeometry x="160" y="220" width="80" height="80" as="geometry" />
        </mxCell>
        <mxCell id="Lyhg9dJuoTREm1i18HMX-24" value="" style="endArrow=none;html=1;rounded=0;strokeWidth=3;exitX=1;exitY=0.5;exitDx=0;exitDy=0;entryX=0;entryY=0.5;entryDx=0;entryDy=0;" parent="Lyhg9dJuoTREm1i18HMX-47" source="Lyhg9dJuoTREm1i18HMX-29" target="Lyhg9dJuoTREm1i18HMX-30" edge="1">
          <mxGeometry width="50" height="50" relative="1" as="geometry">
            <mxPoint x="490" y="300" as="sourcePoint" />
            <mxPoint x="160" y="264" as="targetPoint" />
          </mxGeometry>
        </mxCell>
        <mxCell id="Lyhg9dJuoTREm1i18HMX-31" value="&lt;font face=&quot;Times New Roman&quot; style=&quot;font-size: 25px;&quot;&gt;&lt;b&gt;X&lt;sub&gt;4&lt;/sub&gt;&lt;/b&gt;&lt;/font&gt;" style="ellipse;whiteSpace=wrap;html=1;aspect=fixed;strokeWidth=2;" parent="Lyhg9dJuoTREm1i18HMX-47" vertex="1">
          <mxGeometry x="160" y="60" width="80" height="80" as="geometry" />
        </mxCell>
        <mxCell id="Lyhg9dJuoTREm1i18HMX-32" value="" style="ellipse;whiteSpace=wrap;html=1;aspect=fixed;fontSize=25;strokeWidth=3;" parent="Lyhg9dJuoTREm1i18HMX-47" vertex="1">
          <mxGeometry x="35" y="141" width="10" height="10" as="geometry" />
        </mxCell>
        <mxCell id="Lyhg9dJuoTREm1i18HMX-33" value="" style="ellipse;whiteSpace=wrap;html=1;aspect=fixed;fontSize=25;strokeWidth=3;" parent="Lyhg9dJuoTREm1i18HMX-47" vertex="1">
          <mxGeometry x="35" y="210" width="10" height="10" as="geometry" />
        </mxCell>
        <mxCell id="Lyhg9dJuoTREm1i18HMX-36" value="" style="ellipse;whiteSpace=wrap;html=1;aspect=fixed;fontSize=25;strokeWidth=3;" parent="Lyhg9dJuoTREm1i18HMX-47" vertex="1">
          <mxGeometry x="81" y="255" width="10" height="10" as="geometry" />
        </mxCell>
        <mxCell id="Lyhg9dJuoTREm1i18HMX-37" value="" style="ellipse;whiteSpace=wrap;html=1;aspect=fixed;fontSize=25;strokeWidth=3;" parent="Lyhg9dJuoTREm1i18HMX-47" vertex="1">
          <mxGeometry x="150" y="255" width="10" height="10" as="geometry" />
        </mxCell>
        <mxCell id="Lyhg9dJuoTREm1i18HMX-38" value="" style="ellipse;whiteSpace=wrap;html=1;aspect=fixed;fontSize=25;strokeWidth=3;" parent="Lyhg9dJuoTREm1i18HMX-47" vertex="1">
          <mxGeometry x="195" y="141" width="10" height="10" as="geometry" />
        </mxCell>
        <mxCell id="Lyhg9dJuoTREm1i18HMX-39" value="" style="ellipse;whiteSpace=wrap;html=1;aspect=fixed;fontSize=25;strokeWidth=3;" parent="Lyhg9dJuoTREm1i18HMX-47" vertex="1">
          <mxGeometry x="195" y="209" width="10" height="10" as="geometry" />
        </mxCell>
        <mxCell id="Lyhg9dJuoTREm1i18HMX-41" value="" style="ellipse;whiteSpace=wrap;html=1;aspect=fixed;fontSize=25;strokeWidth=3;" parent="Lyhg9dJuoTREm1i18HMX-47" vertex="1">
          <mxGeometry x="67" y="129" width="10" height="10" as="geometry" />
        </mxCell>
        <mxCell id="Lyhg9dJuoTREm1i18HMX-42" value="" style="ellipse;whiteSpace=wrap;html=1;aspect=fixed;fontSize=25;strokeWidth=3;" parent="Lyhg9dJuoTREm1i18HMX-47" vertex="1">
          <mxGeometry x="159" y="227" width="10" height="10" as="geometry" />
        </mxCell>
        <mxCell id="Lyhg9dJuoTREm1i18HMX-43" value="" style="ellipse;whiteSpace=wrap;html=1;aspect=fixed;fontSize=25;strokeWidth=3;" parent="Lyhg9dJuoTREm1i18HMX-47" vertex="1">
          <mxGeometry x="70" y="226" width="10" height="10" as="geometry" />
        </mxCell>
        <mxCell id="Lyhg9dJuoTREm1i18HMX-44" value="" style="ellipse;whiteSpace=wrap;html=1;aspect=fixed;fontSize=25;strokeWidth=3;" parent="Lyhg9dJuoTREm1i18HMX-47" vertex="1">
          <mxGeometry x="162" y="127" width="10" height="10" as="geometry" />
        </mxCell>
        <mxCell id="Lyhg9dJuoTREm1i18HMX-45" value="" style="endArrow=none;html=1;rounded=0;strokeWidth=3;exitX=1;exitY=1;exitDx=0;exitDy=0;" parent="Lyhg9dJuoTREm1i18HMX-47" source="Lyhg9dJuoTREm1i18HMX-41" edge="1">
          <mxGeometry width="50" height="50" relative="1" as="geometry">
            <mxPoint x="490" y="300" as="sourcePoint" />
            <mxPoint x="160" y="230" as="targetPoint" />
          </mxGeometry>
        </mxCell>
        <mxCell id="Lyhg9dJuoTREm1i18HMX-46" value="" style="endArrow=none;html=1;rounded=0;strokeWidth=3;exitX=0.5;exitY=1;exitDx=0;exitDy=0;entryX=0.5;entryY=0;entryDx=0;entryDy=0;" parent="Lyhg9dJuoTREm1i18HMX-47" source="Lyhg9dJuoTREm1i18HMX-38" target="Lyhg9dJuoTREm1i18HMX-39" edge="1">
          <mxGeometry width="50" height="50" relative="1" as="geometry">
            <mxPoint x="490" y="300" as="sourcePoint" />
            <mxPoint x="200" y="200" as="targetPoint" />
          </mxGeometry>
        </mxCell>
        <mxCell id="Lyhg9dJuoTREm1i18HMX-69" value="" style="group" parent="1" vertex="1" connectable="0">
          <mxGeometry x="400" y="434" width="240" height="300" as="geometry" />
        </mxCell>
        <mxCell id="Lyhg9dJuoTREm1i18HMX-50" value="" style="endArrow=classic;html=1;rounded=0;fontSize=25;entryX=0.5;entryY=0;entryDx=0;entryDy=0;strokeWidth=3;startArrow=none;" parent="Lyhg9dJuoTREm1i18HMX-69" target="Lyhg9dJuoTREm1i18HMX-55" edge="1">
          <mxGeometry width="50" height="50" relative="1" as="geometry">
            <mxPoint x="200" y="130" as="sourcePoint" />
            <mxPoint x="470" y="240" as="targetPoint" />
          </mxGeometry>
        </mxCell>
        <mxCell id="Lyhg9dJuoTREm1i18HMX-51" value="" style="endArrow=classic;html=1;rounded=0;fontSize=25;entryX=0.5;entryY=0;entryDx=0;entryDy=0;strokeWidth=3;startArrow=none;" parent="Lyhg9dJuoTREm1i18HMX-69" target="Lyhg9dJuoTREm1i18HMX-54" edge="1">
          <mxGeometry width="50" height="50" relative="1" as="geometry">
            <mxPoint x="40" y="130" as="sourcePoint" />
            <mxPoint x="470" y="240" as="targetPoint" />
          </mxGeometry>
        </mxCell>
        <mxCell id="Lyhg9dJuoTREm1i18HMX-53" value="&lt;font face=&quot;Times New Roman&quot; style=&quot;font-size: 25px;&quot;&gt;&lt;b&gt;X&lt;sub&gt;1&lt;/sub&gt;&lt;/b&gt;&lt;/font&gt;" style="ellipse;whiteSpace=wrap;html=1;aspect=fixed;strokeWidth=2;" parent="Lyhg9dJuoTREm1i18HMX-69" vertex="1">
          <mxGeometry y="60" width="80" height="80" as="geometry" />
        </mxCell>
        <mxCell id="Lyhg9dJuoTREm1i18HMX-52" value="" style="edgeStyle=orthogonalEdgeStyle;rounded=0;orthogonalLoop=1;jettySize=auto;html=1;strokeWidth=3;" parent="Lyhg9dJuoTREm1i18HMX-69" source="Lyhg9dJuoTREm1i18HMX-53" target="Lyhg9dJuoTREm1i18HMX-54" edge="1">
          <mxGeometry relative="1" as="geometry" />
        </mxCell>
        <mxCell id="Lyhg9dJuoTREm1i18HMX-56" value="&lt;font face=&quot;Times New Roman&quot; style=&quot;font-size: 25px;&quot;&gt;&lt;b&gt;X&lt;sub&gt;4&lt;/sub&gt;&lt;/b&gt;&lt;/font&gt;" style="ellipse;whiteSpace=wrap;html=1;aspect=fixed;strokeWidth=2;" parent="Lyhg9dJuoTREm1i18HMX-69" vertex="1">
          <mxGeometry x="160" y="60" width="80" height="80" as="geometry" />
        </mxCell>
        <mxCell id="Lyhg9dJuoTREm1i18HMX-57" value="" style="endArrow=none;html=1;strokeWidth=3;fontSize=25;curved=1;exitX=1;exitY=0.5;exitDx=0;exitDy=0;entryX=0;entryY=0.5;entryDx=0;entryDy=0;startArrow=none;" parent="Lyhg9dJuoTREm1i18HMX-69" source="Lyhg9dJuoTREm1i18HMX-66" target="Lyhg9dJuoTREm1i18HMX-55" edge="1">
          <mxGeometry width="50" height="50" relative="1" as="geometry">
            <mxPoint x="300" y="250" as="sourcePoint" />
            <mxPoint x="350" y="200" as="targetPoint" />
          </mxGeometry>
        </mxCell>
        <mxCell id="Lyhg9dJuoTREm1i18HMX-58" value="" style="endArrow=classic;html=1;strokeWidth=3;fontSize=25;curved=1;exitX=1;exitY=1;exitDx=0;exitDy=0;startArrow=none;" parent="Lyhg9dJuoTREm1i18HMX-69" source="Lyhg9dJuoTREm1i18HMX-53" target="Lyhg9dJuoTREm1i18HMX-55" edge="1">
          <mxGeometry width="50" height="50" relative="1" as="geometry">
            <mxPoint x="76.53553390603429" y="136.5355339060343" as="sourcePoint" />
            <mxPoint x="350" y="200" as="targetPoint" />
          </mxGeometry>
        </mxCell>
        <mxCell id="Lyhg9dJuoTREm1i18HMX-59" value="" style="endArrow=classic;html=1;strokeWidth=3;fontSize=25;curved=1;entryX=1;entryY=0;entryDx=0;entryDy=0;startArrow=none;exitX=0;exitY=1;exitDx=0;exitDy=0;" parent="Lyhg9dJuoTREm1i18HMX-69" source="Lyhg9dJuoTREm1i18HMX-56" target="Lyhg9dJuoTREm1i18HMX-54" edge="1">
          <mxGeometry width="50" height="50" relative="1" as="geometry">
            <mxPoint x="170" y="130" as="sourcePoint" />
            <mxPoint x="350" y="200" as="targetPoint" />
          </mxGeometry>
        </mxCell>
        <mxCell id="Lyhg9dJuoTREm1i18HMX-60" value="" style="endArrow=none;html=1;rounded=0;fontSize=25;exitX=0.5;exitY=1;exitDx=0;exitDy=0;entryX=0.5;entryY=0;entryDx=0;entryDy=0;strokeWidth=3;" parent="Lyhg9dJuoTREm1i18HMX-69" source="Lyhg9dJuoTREm1i18HMX-53" edge="1">
          <mxGeometry width="50" height="50" relative="1" as="geometry">
            <mxPoint x="40" y="140" as="sourcePoint" />
            <mxPoint x="40" y="140" as="targetPoint" />
          </mxGeometry>
        </mxCell>
        <mxCell id="Lyhg9dJuoTREm1i18HMX-62" value="" style="endArrow=none;html=1;strokeWidth=3;fontSize=25;curved=1;exitX=1;exitY=0.5;exitDx=0;exitDy=0;entryX=0;entryY=0.5;entryDx=0;entryDy=0;" parent="Lyhg9dJuoTREm1i18HMX-69" source="Lyhg9dJuoTREm1i18HMX-54" target="Lyhg9dJuoTREm1i18HMX-61" edge="1">
          <mxGeometry width="50" height="50" relative="1" as="geometry">
            <mxPoint x="80" y="260" as="sourcePoint" />
            <mxPoint x="160" y="260" as="targetPoint" />
          </mxGeometry>
        </mxCell>
        <mxCell id="Lyhg9dJuoTREm1i18HMX-63" value="" style="endArrow=none;html=1;rounded=0;fontSize=25;exitX=0.5;exitY=1;exitDx=0;exitDy=0;entryX=0.5;entryY=0;entryDx=0;entryDy=0;strokeWidth=3;" parent="Lyhg9dJuoTREm1i18HMX-69" source="Lyhg9dJuoTREm1i18HMX-56" edge="1">
          <mxGeometry width="50" height="50" relative="1" as="geometry">
            <mxPoint x="200" y="140" as="sourcePoint" />
            <mxPoint x="200" y="140" as="targetPoint" />
          </mxGeometry>
        </mxCell>
        <mxCell id="Lyhg9dJuoTREm1i18HMX-64" value="" style="endArrow=none;html=1;strokeWidth=3;fontSize=25;curved=1;exitX=0;exitY=1;exitDx=0;exitDy=0;entryX=1;entryY=0;entryDx=0;entryDy=0;" parent="Lyhg9dJuoTREm1i18HMX-69" source="Lyhg9dJuoTREm1i18HMX-56" edge="1">
          <mxGeometry width="50" height="50" relative="1" as="geometry">
            <mxPoint x="171.71572875253787" y="128.28427124746258" as="sourcePoint" />
            <mxPoint x="171.5355339060343" y="128.46446609396548" as="targetPoint" />
          </mxGeometry>
        </mxCell>
        <mxCell id="Lyhg9dJuoTREm1i18HMX-65" value="" style="endArrow=none;html=1;strokeWidth=3;fontSize=25;curved=1;exitX=1;exitY=1;exitDx=0;exitDy=0;" parent="Lyhg9dJuoTREm1i18HMX-69" source="Lyhg9dJuoTREm1i18HMX-53" edge="1">
          <mxGeometry width="50" height="50" relative="1" as="geometry">
            <mxPoint x="68.28427124746213" y="128.28427124746213" as="sourcePoint" />
            <mxPoint x="69.46446609396617" y="129.46446609396617" as="targetPoint" />
          </mxGeometry>
        </mxCell>
        <mxCell id="Lyhg9dJuoTREm1i18HMX-66" value="" style="ellipse;whiteSpace=wrap;html=1;aspect=fixed;fontSize=25;strokeWidth=3;" parent="Lyhg9dJuoTREm1i18HMX-69" vertex="1">
          <mxGeometry x="147" y="255" width="10" height="10" as="geometry" />
        </mxCell>
        <mxCell id="Lyhg9dJuoTREm1i18HMX-67" value="" style="endArrow=none;html=1;strokeWidth=3;fontSize=25;curved=1;startArrow=none;entryX=0;entryY=0.5;entryDx=0;entryDy=0;" parent="Lyhg9dJuoTREm1i18HMX-69" target="Lyhg9dJuoTREm1i18HMX-66" edge="1">
          <mxGeometry width="50" height="50" relative="1" as="geometry">
            <mxPoint x="90" y="260" as="sourcePoint" />
            <mxPoint x="140" y="260" as="targetPoint" />
          </mxGeometry>
        </mxCell>
        <mxCell id="Lyhg9dJuoTREm1i18HMX-68" value="&lt;font style=&quot;font-size: 25px;&quot;&gt;&lt;font face=&quot;Times New Roman&quot; style=&quot;font-size: 25px;&quot;&gt;&lt;b&gt;(e)&amp;nbsp;&lt;/b&gt;&lt;/font&gt;&lt;/font&gt;" style="text;html=1;align=center;verticalAlign=middle;resizable=0;points=[];autosize=1;strokeColor=none;fillColor=none;fontSize=25;" parent="Lyhg9dJuoTREm1i18HMX-69" vertex="1">
          <mxGeometry y="-2" width="60" height="40" as="geometry" />
        </mxCell>
        <mxCell id="Lyhg9dJuoTREm1i18HMX-61" value="" style="ellipse;whiteSpace=wrap;html=1;aspect=fixed;fontSize=25;strokeWidth=3;" parent="Lyhg9dJuoTREm1i18HMX-69" vertex="1">
          <mxGeometry x="82" y="255" width="10" height="10" as="geometry" />
        </mxCell>
        <mxCell id="Lyhg9dJuoTREm1i18HMX-55" value="&lt;font face=&quot;Times New Roman&quot; style=&quot;font-size: 25px;&quot;&gt;&lt;b&gt;X&lt;sub&gt;3&lt;/sub&gt;&lt;/b&gt;&lt;/font&gt;" style="ellipse;whiteSpace=wrap;html=1;aspect=fixed;strokeWidth=2;" parent="Lyhg9dJuoTREm1i18HMX-69" vertex="1">
          <mxGeometry x="160" y="220" width="80" height="80" as="geometry" />
        </mxCell>
        <mxCell id="Lyhg9dJuoTREm1i18HMX-54" value="&lt;font face=&quot;Times New Roman&quot;&gt;&lt;b&gt;&lt;font style=&quot;font-size: 25px;&quot;&gt;X&lt;/font&gt;&lt;font style=&quot;font-size: 20.8333px;&quot;&gt;&lt;sub&gt;2&lt;/sub&gt;&lt;/font&gt;&lt;/b&gt;&lt;/font&gt;" style="ellipse;whiteSpace=wrap;html=1;aspect=fixed;strokeWidth=2;" parent="Lyhg9dJuoTREm1i18HMX-69" vertex="1">
          <mxGeometry y="220" width="80" height="80" as="geometry" />
        </mxCell>
        <mxCell id="nuCYATSqy8UchAZJj3eZ-1" value="" style="endArrow=none;dashed=1;html=1;dashPattern=1 3;strokeWidth=3;rounded=0;" parent="Lyhg9dJuoTREm1i18HMX-69" edge="1">
          <mxGeometry width="50" height="50" relative="1" as="geometry">
            <mxPoint x="19" y="276" as="sourcePoint" />
            <mxPoint x="59" y="276" as="targetPoint" />
          </mxGeometry>
        </mxCell>
        <mxCell id="nuCYATSqy8UchAZJj3eZ-5" value="" style="endArrow=none;dashed=1;html=1;dashPattern=1 3;strokeWidth=3;rounded=0;" parent="Lyhg9dJuoTREm1i18HMX-69" edge="1">
          <mxGeometry width="50" height="50" relative="1" as="geometry">
            <mxPoint x="179.99999999999977" y="276" as="sourcePoint" />
            <mxPoint x="219.99999999999977" y="276" as="targetPoint" />
          </mxGeometry>
        </mxCell>
        <mxCell id="Lyhg9dJuoTREm1i18HMX-70" value="" style="group" parent="1" vertex="1" connectable="0">
          <mxGeometry x="761" y="434" width="240" height="300" as="geometry" />
        </mxCell>
        <mxCell id="yQn8MfotT0m3Hae0XQfb-32" value="&lt;font face=&quot;Times New Roman&quot; style=&quot;font-size: 25px;&quot;&gt;&lt;b&gt;X&lt;sub&gt;1&lt;/sub&gt;&lt;/b&gt;&lt;/font&gt;" style="ellipse;whiteSpace=wrap;html=1;aspect=fixed;strokeWidth=2;" parent="Lyhg9dJuoTREm1i18HMX-70" vertex="1">
          <mxGeometry y="60" width="80" height="80" as="geometry" />
        </mxCell>
        <mxCell id="yQn8MfotT0m3Hae0XQfb-33" value="&lt;font face=&quot;Times New Roman&quot;&gt;&lt;b&gt;&lt;font style=&quot;font-size: 25px;&quot;&gt;X&lt;/font&gt;&lt;font style=&quot;font-size: 20.8333px;&quot;&gt;&lt;sub&gt;2&lt;/sub&gt;&lt;/font&gt;&lt;/b&gt;&lt;/font&gt;" style="ellipse;whiteSpace=wrap;html=1;aspect=fixed;strokeWidth=2;" parent="Lyhg9dJuoTREm1i18HMX-70" vertex="1">
          <mxGeometry y="220" width="80" height="80" as="geometry" />
        </mxCell>
        <mxCell id="yQn8MfotT0m3Hae0XQfb-34" value="&lt;font face=&quot;Times New Roman&quot; style=&quot;font-size: 25px;&quot;&gt;&lt;b&gt;X&lt;sub&gt;3&lt;/sub&gt;&lt;/b&gt;&lt;/font&gt;" style="ellipse;whiteSpace=wrap;html=1;aspect=fixed;strokeWidth=2;" parent="Lyhg9dJuoTREm1i18HMX-70" vertex="1">
          <mxGeometry x="160" y="220" width="80" height="80" as="geometry" />
        </mxCell>
        <mxCell id="yQn8MfotT0m3Hae0XQfb-35" value="&lt;font face=&quot;Times New Roman&quot; style=&quot;font-size: 25px;&quot;&gt;&lt;b&gt;X&lt;sub&gt;4&lt;/sub&gt;&lt;/b&gt;&lt;/font&gt;" style="ellipse;whiteSpace=wrap;html=1;aspect=fixed;strokeWidth=2;" parent="Lyhg9dJuoTREm1i18HMX-70" vertex="1">
          <mxGeometry x="160" y="60" width="80" height="80" as="geometry" />
        </mxCell>
        <mxCell id="yQn8MfotT0m3Hae0XQfb-36" value="" style="endArrow=classic;html=1;rounded=0;fontSize=25;exitX=0.5;exitY=1;exitDx=0;exitDy=0;entryX=0.5;entryY=0;entryDx=0;entryDy=0;strokeWidth=3;" parent="Lyhg9dJuoTREm1i18HMX-70" source="yQn8MfotT0m3Hae0XQfb-32" target="yQn8MfotT0m3Hae0XQfb-33" edge="1">
          <mxGeometry width="50" height="50" relative="1" as="geometry">
            <mxPoint x="420" y="290" as="sourcePoint" />
            <mxPoint x="470" y="240" as="targetPoint" />
          </mxGeometry>
        </mxCell>
        <mxCell id="yQn8MfotT0m3Hae0XQfb-37" value="" style="endArrow=classic;html=1;rounded=0;fontSize=25;exitX=0.5;exitY=1;exitDx=0;exitDy=0;entryX=0.5;entryY=0;entryDx=0;entryDy=0;strokeWidth=3;" parent="Lyhg9dJuoTREm1i18HMX-70" source="yQn8MfotT0m3Hae0XQfb-35" target="yQn8MfotT0m3Hae0XQfb-34" edge="1">
          <mxGeometry width="50" height="50" relative="1" as="geometry">
            <mxPoint x="420" y="290" as="sourcePoint" />
            <mxPoint x="470" y="240" as="targetPoint" />
          </mxGeometry>
        </mxCell>
        <mxCell id="yQn8MfotT0m3Hae0XQfb-55" value="" style="endArrow=none;html=1;strokeWidth=3;fontSize=25;curved=1;exitX=1;exitY=0.5;exitDx=0;exitDy=0;entryX=0;entryY=0.5;entryDx=0;entryDy=0;" parent="Lyhg9dJuoTREm1i18HMX-70" source="yQn8MfotT0m3Hae0XQfb-33" target="yQn8MfotT0m3Hae0XQfb-34" edge="1">
          <mxGeometry width="50" height="50" relative="1" as="geometry">
            <mxPoint x="-60" y="250" as="sourcePoint" />
            <mxPoint x="-10" y="200" as="targetPoint" />
          </mxGeometry>
        </mxCell>
        <mxCell id="yQn8MfotT0m3Hae0XQfb-56" value="" style="endArrow=classic;html=1;strokeWidth=3;fontSize=25;curved=1;entryX=0;entryY=0;entryDx=0;entryDy=0;exitX=1;exitY=1;exitDx=0;exitDy=0;" parent="Lyhg9dJuoTREm1i18HMX-70" source="yQn8MfotT0m3Hae0XQfb-32" target="yQn8MfotT0m3Hae0XQfb-34" edge="1">
          <mxGeometry width="50" height="50" relative="1" as="geometry">
            <mxPoint x="-60" y="250" as="sourcePoint" />
            <mxPoint x="-10" y="200" as="targetPoint" />
          </mxGeometry>
        </mxCell>
        <mxCell id="yQn8MfotT0m3Hae0XQfb-57" value="" style="endArrow=classic;html=1;strokeWidth=3;fontSize=25;curved=1;exitX=0;exitY=1;exitDx=0;exitDy=0;entryX=1;entryY=0;entryDx=0;entryDy=0;" parent="Lyhg9dJuoTREm1i18HMX-70" source="yQn8MfotT0m3Hae0XQfb-35" target="yQn8MfotT0m3Hae0XQfb-33" edge="1">
          <mxGeometry width="50" height="50" relative="1" as="geometry">
            <mxPoint x="-60" y="250" as="sourcePoint" />
            <mxPoint x="-10" y="200" as="targetPoint" />
          </mxGeometry>
        </mxCell>
        <mxCell id="yQn8MfotT0m3Hae0XQfb-61" value="&lt;font face=&quot;Times New Roman&quot;&gt;&lt;b&gt;(f)&lt;/b&gt;&lt;/font&gt;" style="text;html=1;align=center;verticalAlign=middle;resizable=0;points=[];autosize=1;strokeColor=none;fillColor=none;fontSize=25;" parent="Lyhg9dJuoTREm1i18HMX-70" vertex="1">
          <mxGeometry y="-2" width="50" height="40" as="geometry" />
        </mxCell>
        <mxCell id="nuCYATSqy8UchAZJj3eZ-6" value="" style="endArrow=none;dashed=1;html=1;dashPattern=1 3;strokeWidth=3;rounded=0;" parent="Lyhg9dJuoTREm1i18HMX-70" edge="1">
          <mxGeometry width="50" height="50" relative="1" as="geometry">
            <mxPoint x="19.999999999999773" y="276" as="sourcePoint" />
            <mxPoint x="59.99999999999977" y="276" as="targetPoint" />
          </mxGeometry>
        </mxCell>
        <mxCell id="nuCYATSqy8UchAZJj3eZ-8" value="" style="endArrow=none;dashed=1;html=1;dashPattern=1 3;strokeWidth=3;rounded=0;" parent="Lyhg9dJuoTREm1i18HMX-70" edge="1">
          <mxGeometry width="50" height="50" relative="1" as="geometry">
            <mxPoint x="179.99999999999977" y="276" as="sourcePoint" />
            <mxPoint x="219.99999999999977" y="276" as="targetPoint" />
          </mxGeometry>
        </mxCell>
        <mxCell id="Lyhg9dJuoTREm1i18HMX-71" value="" style="group" parent="1" vertex="1" connectable="0">
          <mxGeometry x="40" y="441" width="240" height="300" as="geometry" />
        </mxCell>
        <mxCell id="yQn8MfotT0m3Hae0XQfb-28" value="" style="endArrow=classic;html=1;rounded=0;fontSize=25;entryX=0.5;entryY=0;entryDx=0;entryDy=0;strokeWidth=3;startArrow=none;" parent="Lyhg9dJuoTREm1i18HMX-71" target="yQn8MfotT0m3Hae0XQfb-25" edge="1">
          <mxGeometry width="50" height="50" relative="1" as="geometry">
            <mxPoint x="200" y="121" as="sourcePoint" />
            <mxPoint x="470" y="231" as="targetPoint" />
          </mxGeometry>
        </mxCell>
        <mxCell id="yQn8MfotT0m3Hae0XQfb-27" value="" style="endArrow=classic;html=1;rounded=0;fontSize=25;entryX=0.5;entryY=0;entryDx=0;entryDy=0;strokeWidth=3;startArrow=none;" parent="Lyhg9dJuoTREm1i18HMX-71" target="yQn8MfotT0m3Hae0XQfb-24" edge="1">
          <mxGeometry width="50" height="50" relative="1" as="geometry">
            <mxPoint x="40" y="121" as="sourcePoint" />
            <mxPoint x="470" y="231" as="targetPoint" />
          </mxGeometry>
        </mxCell>
        <mxCell id="yQn8MfotT0m3Hae0XQfb-23" value="&lt;font face=&quot;Times New Roman&quot; style=&quot;font-size: 25px;&quot;&gt;&lt;b&gt;X&lt;sub&gt;1&lt;/sub&gt;&lt;/b&gt;&lt;/font&gt;" style="ellipse;whiteSpace=wrap;html=1;aspect=fixed;strokeWidth=2;" parent="Lyhg9dJuoTREm1i18HMX-71" vertex="1">
          <mxGeometry y="51" width="80" height="80" as="geometry" />
        </mxCell>
        <mxCell id="yQn8MfotT0m3Hae0XQfb-24" value="&lt;font face=&quot;Times New Roman&quot;&gt;&lt;b&gt;&lt;font style=&quot;font-size: 25px;&quot;&gt;X&lt;/font&gt;&lt;font style=&quot;font-size: 20.8333px;&quot;&gt;&lt;sub&gt;2&lt;/sub&gt;&lt;/font&gt;&lt;/b&gt;&lt;/font&gt;" style="ellipse;whiteSpace=wrap;html=1;aspect=fixed;strokeWidth=2;" parent="Lyhg9dJuoTREm1i18HMX-71" vertex="1">
          <mxGeometry y="211" width="80" height="80" as="geometry" />
        </mxCell>
        <mxCell id="Lyhg9dJuoTREm1i18HMX-49" value="" style="edgeStyle=orthogonalEdgeStyle;rounded=0;orthogonalLoop=1;jettySize=auto;html=1;strokeWidth=3;" parent="Lyhg9dJuoTREm1i18HMX-71" source="yQn8MfotT0m3Hae0XQfb-23" target="yQn8MfotT0m3Hae0XQfb-24" edge="1">
          <mxGeometry relative="1" as="geometry" />
        </mxCell>
        <mxCell id="yQn8MfotT0m3Hae0XQfb-25" value="&lt;font face=&quot;Times New Roman&quot; style=&quot;font-size: 25px;&quot;&gt;&lt;b&gt;X&lt;sub&gt;3&lt;/sub&gt;&lt;/b&gt;&lt;/font&gt;" style="ellipse;whiteSpace=wrap;html=1;aspect=fixed;strokeWidth=2;" parent="Lyhg9dJuoTREm1i18HMX-71" vertex="1">
          <mxGeometry x="160" y="211" width="80" height="80" as="geometry" />
        </mxCell>
        <mxCell id="yQn8MfotT0m3Hae0XQfb-26" value="&lt;font face=&quot;Times New Roman&quot; style=&quot;font-size: 25px;&quot;&gt;&lt;b&gt;X&lt;sub&gt;4&lt;/sub&gt;&lt;/b&gt;&lt;/font&gt;" style="ellipse;whiteSpace=wrap;html=1;aspect=fixed;strokeWidth=2;" parent="Lyhg9dJuoTREm1i18HMX-71" vertex="1">
          <mxGeometry x="160" y="51" width="80" height="80" as="geometry" />
        </mxCell>
        <mxCell id="yQn8MfotT0m3Hae0XQfb-40" value="" style="endArrow=none;html=1;strokeWidth=3;fontSize=25;curved=1;exitX=1;exitY=0.5;exitDx=0;exitDy=0;entryX=0;entryY=0.5;entryDx=0;entryDy=0;startArrow=none;" parent="Lyhg9dJuoTREm1i18HMX-71" source="yQn8MfotT0m3Hae0XQfb-53" target="yQn8MfotT0m3Hae0XQfb-25" edge="1">
          <mxGeometry width="50" height="50" relative="1" as="geometry">
            <mxPoint x="300" y="241" as="sourcePoint" />
            <mxPoint x="350" y="191" as="targetPoint" />
          </mxGeometry>
        </mxCell>
        <mxCell id="yQn8MfotT0m3Hae0XQfb-41" value="" style="endArrow=classic;html=1;strokeWidth=3;fontSize=25;curved=1;exitX=1;exitY=1;exitDx=0;exitDy=0;startArrow=none;" parent="Lyhg9dJuoTREm1i18HMX-71" source="yQn8MfotT0m3Hae0XQfb-23" target="yQn8MfotT0m3Hae0XQfb-25" edge="1">
          <mxGeometry width="50" height="50" relative="1" as="geometry">
            <mxPoint x="76.53553390603429" y="127.53553390603429" as="sourcePoint" />
            <mxPoint x="350" y="191" as="targetPoint" />
          </mxGeometry>
        </mxCell>
        <mxCell id="yQn8MfotT0m3Hae0XQfb-42" value="" style="endArrow=classic;html=1;strokeWidth=3;fontSize=25;curved=1;entryX=1;entryY=0;entryDx=0;entryDy=0;startArrow=none;" parent="Lyhg9dJuoTREm1i18HMX-71" target="yQn8MfotT0m3Hae0XQfb-24" edge="1">
          <mxGeometry width="50" height="50" relative="1" as="geometry">
            <mxPoint x="170" y="121" as="sourcePoint" />
            <mxPoint x="350" y="191" as="targetPoint" />
          </mxGeometry>
        </mxCell>
        <mxCell id="yQn8MfotT0m3Hae0XQfb-44" value="" style="endArrow=none;html=1;rounded=0;fontSize=25;exitX=0.5;exitY=1;exitDx=0;exitDy=0;entryX=0.5;entryY=0;entryDx=0;entryDy=0;strokeWidth=3;" parent="Lyhg9dJuoTREm1i18HMX-71" source="yQn8MfotT0m3Hae0XQfb-23" edge="1">
          <mxGeometry width="50" height="50" relative="1" as="geometry">
            <mxPoint x="40" y="131" as="sourcePoint" />
            <mxPoint x="40" y="131" as="targetPoint" />
          </mxGeometry>
        </mxCell>
        <mxCell id="yQn8MfotT0m3Hae0XQfb-45" value="" style="ellipse;whiteSpace=wrap;html=1;aspect=fixed;fontSize=25;strokeWidth=3;" parent="Lyhg9dJuoTREm1i18HMX-71" vertex="1">
          <mxGeometry x="80" y="246" width="10" height="10" as="geometry" />
        </mxCell>
        <mxCell id="yQn8MfotT0m3Hae0XQfb-46" value="" style="endArrow=none;html=1;strokeWidth=3;fontSize=25;curved=1;exitX=1;exitY=0.5;exitDx=0;exitDy=0;entryX=0;entryY=0.5;entryDx=0;entryDy=0;" parent="Lyhg9dJuoTREm1i18HMX-71" edge="1">
          <mxGeometry width="50" height="50" relative="1" as="geometry">
            <mxPoint x="60" y="251" as="sourcePoint" />
            <mxPoint x="60" y="251" as="targetPoint" />
          </mxGeometry>
        </mxCell>
        <mxCell id="yQn8MfotT0m3Hae0XQfb-48" value="" style="endArrow=none;html=1;rounded=0;fontSize=25;exitX=0.5;exitY=1;exitDx=0;exitDy=0;entryX=0.5;entryY=0;entryDx=0;entryDy=0;strokeWidth=3;" parent="Lyhg9dJuoTREm1i18HMX-71" source="yQn8MfotT0m3Hae0XQfb-26" edge="1">
          <mxGeometry width="50" height="50" relative="1" as="geometry">
            <mxPoint x="200" y="131" as="sourcePoint" />
            <mxPoint x="200" y="131" as="targetPoint" />
          </mxGeometry>
        </mxCell>
        <mxCell id="yQn8MfotT0m3Hae0XQfb-50" value="" style="endArrow=none;html=1;strokeWidth=3;fontSize=25;curved=1;exitX=0;exitY=1;exitDx=0;exitDy=0;entryX=1;entryY=0;entryDx=0;entryDy=0;" parent="Lyhg9dJuoTREm1i18HMX-71" source="yQn8MfotT0m3Hae0XQfb-26" edge="1">
          <mxGeometry width="50" height="50" relative="1" as="geometry">
            <mxPoint x="171.71572875253787" y="119.28427124746258" as="sourcePoint" />
            <mxPoint x="171.5355339060343" y="119.46446609396548" as="targetPoint" />
          </mxGeometry>
        </mxCell>
        <mxCell id="yQn8MfotT0m3Hae0XQfb-52" value="" style="endArrow=none;html=1;strokeWidth=3;fontSize=25;curved=1;exitX=1;exitY=1;exitDx=0;exitDy=0;" parent="Lyhg9dJuoTREm1i18HMX-71" source="yQn8MfotT0m3Hae0XQfb-23" edge="1">
          <mxGeometry width="50" height="50" relative="1" as="geometry">
            <mxPoint x="68.28427124746213" y="119.28427124746213" as="sourcePoint" />
            <mxPoint x="69.46446609396617" y="120.46446609396617" as="targetPoint" />
          </mxGeometry>
        </mxCell>
        <mxCell id="yQn8MfotT0m3Hae0XQfb-53" value="" style="ellipse;whiteSpace=wrap;html=1;aspect=fixed;fontSize=25;strokeWidth=3;" parent="Lyhg9dJuoTREm1i18HMX-71" vertex="1">
          <mxGeometry x="150" y="246" width="10" height="10" as="geometry" />
        </mxCell>
        <mxCell id="yQn8MfotT0m3Hae0XQfb-54" value="" style="endArrow=none;html=1;strokeWidth=3;fontSize=25;curved=1;exitX=1;exitY=0.5;exitDx=0;exitDy=0;entryX=0;entryY=0.5;entryDx=0;entryDy=0;startArrow=none;" parent="Lyhg9dJuoTREm1i18HMX-71" source="yQn8MfotT0m3Hae0XQfb-45" target="yQn8MfotT0m3Hae0XQfb-53" edge="1">
          <mxGeometry width="50" height="50" relative="1" as="geometry">
            <mxPoint x="90" y="251" as="sourcePoint" />
            <mxPoint x="160" y="251" as="targetPoint" />
          </mxGeometry>
        </mxCell>
        <mxCell id="yQn8MfotT0m3Hae0XQfb-60" value="&lt;font style=&quot;font-size: 25px;&quot;&gt;&lt;font face=&quot;Times New Roman&quot; style=&quot;font-size: 25px;&quot;&gt;&lt;b&gt;(d)&amp;nbsp;&lt;/b&gt;&lt;/font&gt;&lt;/font&gt;" style="text;html=1;align=center;verticalAlign=middle;resizable=0;points=[];autosize=1;strokeColor=none;fillColor=none;fontSize=25;" parent="Lyhg9dJuoTREm1i18HMX-71" vertex="1">
          <mxGeometry y="-10" width="60" height="40" as="geometry" />
        </mxCell>
        <mxCell id="aol4XjUfY5OpFH5lJnD1-22" value="" style="group" parent="1" vertex="1" connectable="0">
          <mxGeometry x="40" y="110" width="240" height="300" as="geometry" />
        </mxCell>
        <mxCell id="aol4XjUfY5OpFH5lJnD1-23" value="" style="endArrow=classic;html=1;rounded=0;fontSize=25;entryX=0.5;entryY=0;entryDx=0;entryDy=0;strokeWidth=3;startArrow=none;" parent="aol4XjUfY5OpFH5lJnD1-22" target="aol4XjUfY5OpFH5lJnD1-28" edge="1">
          <mxGeometry width="50" height="50" relative="1" as="geometry">
            <mxPoint x="200" y="121" as="sourcePoint" />
            <mxPoint x="470" y="231" as="targetPoint" />
          </mxGeometry>
        </mxCell>
        <mxCell id="aol4XjUfY5OpFH5lJnD1-24" value="" style="endArrow=classic;html=1;rounded=0;fontSize=25;entryX=0.5;entryY=0;entryDx=0;entryDy=0;strokeWidth=3;startArrow=none;" parent="aol4XjUfY5OpFH5lJnD1-22" target="aol4XjUfY5OpFH5lJnD1-26" edge="1">
          <mxGeometry width="50" height="50" relative="1" as="geometry">
            <mxPoint x="40" y="121" as="sourcePoint" />
            <mxPoint x="470" y="231" as="targetPoint" />
          </mxGeometry>
        </mxCell>
        <mxCell id="aol4XjUfY5OpFH5lJnD1-25" value="&lt;font face=&quot;Times New Roman&quot; style=&quot;font-size: 25px;&quot;&gt;&lt;b&gt;X&lt;sub&gt;1&lt;/sub&gt;&lt;/b&gt;&lt;/font&gt;" style="ellipse;whiteSpace=wrap;html=1;aspect=fixed;strokeWidth=2;" parent="aol4XjUfY5OpFH5lJnD1-22" vertex="1">
          <mxGeometry y="51" width="80" height="80" as="geometry" />
        </mxCell>
        <mxCell id="aol4XjUfY5OpFH5lJnD1-26" value="&lt;font face=&quot;Times New Roman&quot;&gt;&lt;b&gt;&lt;font style=&quot;font-size: 25px;&quot;&gt;X&lt;/font&gt;&lt;font style=&quot;font-size: 20.8333px;&quot;&gt;&lt;sub&gt;2&lt;/sub&gt;&lt;/font&gt;&lt;/b&gt;&lt;/font&gt;" style="ellipse;whiteSpace=wrap;html=1;aspect=fixed;strokeWidth=2;" parent="aol4XjUfY5OpFH5lJnD1-22" vertex="1">
          <mxGeometry y="211" width="80" height="80" as="geometry" />
        </mxCell>
        <mxCell id="aol4XjUfY5OpFH5lJnD1-27" value="" style="edgeStyle=orthogonalEdgeStyle;rounded=0;orthogonalLoop=1;jettySize=auto;html=1;strokeWidth=3;" parent="aol4XjUfY5OpFH5lJnD1-22" source="aol4XjUfY5OpFH5lJnD1-25" target="aol4XjUfY5OpFH5lJnD1-26" edge="1">
          <mxGeometry relative="1" as="geometry" />
        </mxCell>
        <mxCell id="aol4XjUfY5OpFH5lJnD1-29" value="&lt;font face=&quot;Times New Roman&quot; style=&quot;font-size: 25px;&quot;&gt;&lt;b&gt;X&lt;sub&gt;4&lt;/sub&gt;&lt;/b&gt;&lt;/font&gt;" style="ellipse;whiteSpace=wrap;html=1;aspect=fixed;strokeWidth=2;" parent="aol4XjUfY5OpFH5lJnD1-22" vertex="1">
          <mxGeometry x="160" y="51" width="80" height="80" as="geometry" />
        </mxCell>
        <mxCell id="aol4XjUfY5OpFH5lJnD1-30" value="" style="endArrow=none;html=1;strokeWidth=3;fontSize=25;curved=1;exitX=1;exitY=0.5;exitDx=0;exitDy=0;entryX=0;entryY=0.5;entryDx=0;entryDy=0;startArrow=none;" parent="aol4XjUfY5OpFH5lJnD1-22" target="aol4XjUfY5OpFH5lJnD1-28" edge="1">
          <mxGeometry width="50" height="50" relative="1" as="geometry">
            <mxPoint x="160" y="251" as="sourcePoint" />
            <mxPoint x="350" y="191" as="targetPoint" />
          </mxGeometry>
        </mxCell>
        <mxCell id="aol4XjUfY5OpFH5lJnD1-33" value="" style="endArrow=none;html=1;rounded=0;fontSize=25;exitX=0.5;exitY=1;exitDx=0;exitDy=0;entryX=0.5;entryY=0;entryDx=0;entryDy=0;strokeWidth=3;" parent="aol4XjUfY5OpFH5lJnD1-22" source="aol4XjUfY5OpFH5lJnD1-25" edge="1">
          <mxGeometry width="50" height="50" relative="1" as="geometry">
            <mxPoint x="40" y="131" as="sourcePoint" />
            <mxPoint x="40" y="131" as="targetPoint" />
          </mxGeometry>
        </mxCell>
        <mxCell id="aol4XjUfY5OpFH5lJnD1-35" value="" style="endArrow=none;html=1;strokeWidth=3;fontSize=25;curved=1;exitX=1;exitY=0.5;exitDx=0;exitDy=0;entryX=0;entryY=0.5;entryDx=0;entryDy=0;" parent="aol4XjUfY5OpFH5lJnD1-22" edge="1">
          <mxGeometry width="50" height="50" relative="1" as="geometry">
            <mxPoint x="60" y="251" as="sourcePoint" />
            <mxPoint x="60" y="251" as="targetPoint" />
          </mxGeometry>
        </mxCell>
        <mxCell id="aol4XjUfY5OpFH5lJnD1-36" value="" style="endArrow=none;html=1;rounded=0;fontSize=25;exitX=0.5;exitY=1;exitDx=0;exitDy=0;entryX=0.5;entryY=0;entryDx=0;entryDy=0;strokeWidth=3;" parent="aol4XjUfY5OpFH5lJnD1-22" source="aol4XjUfY5OpFH5lJnD1-29" edge="1">
          <mxGeometry width="50" height="50" relative="1" as="geometry">
            <mxPoint x="200" y="131" as="sourcePoint" />
            <mxPoint x="200" y="131" as="targetPoint" />
          </mxGeometry>
        </mxCell>
        <mxCell id="aol4XjUfY5OpFH5lJnD1-37" value="" style="endArrow=none;html=1;strokeWidth=3;fontSize=25;curved=1;exitX=0;exitY=1;exitDx=0;exitDy=0;entryX=1;entryY=0;entryDx=0;entryDy=0;" parent="aol4XjUfY5OpFH5lJnD1-22" source="aol4XjUfY5OpFH5lJnD1-29" edge="1">
          <mxGeometry width="50" height="50" relative="1" as="geometry">
            <mxPoint x="171.71572875253787" y="119.28427124746258" as="sourcePoint" />
            <mxPoint x="171.5355339060343" y="119.46446609396548" as="targetPoint" />
          </mxGeometry>
        </mxCell>
        <mxCell id="aol4XjUfY5OpFH5lJnD1-38" value="" style="endArrow=none;html=1;strokeWidth=3;fontSize=25;curved=1;exitX=1;exitY=1;exitDx=0;exitDy=0;" parent="aol4XjUfY5OpFH5lJnD1-22" source="aol4XjUfY5OpFH5lJnD1-25" edge="1">
          <mxGeometry width="50" height="50" relative="1" as="geometry">
            <mxPoint x="68.28427124746213" y="119.28427124746213" as="sourcePoint" />
            <mxPoint x="69.46446609396617" y="120.46446609396617" as="targetPoint" />
          </mxGeometry>
        </mxCell>
        <mxCell id="aol4XjUfY5OpFH5lJnD1-41" value="&lt;font style=&quot;font-size: 25px;&quot;&gt;&lt;font face=&quot;Times New Roman&quot; style=&quot;font-size: 25px;&quot;&gt;&lt;b&gt;(a)&amp;nbsp;&lt;/b&gt;&lt;/font&gt;&lt;/font&gt;" style="text;html=1;align=center;verticalAlign=middle;resizable=0;points=[];autosize=1;strokeColor=none;fillColor=none;fontSize=25;" parent="aol4XjUfY5OpFH5lJnD1-22" vertex="1">
          <mxGeometry y="-10" width="60" height="40" as="geometry" />
        </mxCell>
        <mxCell id="aol4XjUfY5OpFH5lJnD1-44" value="" style="endArrow=none;html=1;fontSize=25;entryX=0;entryY=1;entryDx=0;entryDy=0;strokeWidth=3;startArrow=classic;curved=1;exitX=0.95;exitY=0.702;exitDx=0;exitDy=0;exitPerimeter=0;startFill=1;endFill=0;" parent="aol4XjUfY5OpFH5lJnD1-22" source="aol4XjUfY5OpFH5lJnD1-26" edge="1">
          <mxGeometry width="50" height="50" relative="1" as="geometry">
            <mxPoint x="78" y="270" as="sourcePoint" />
            <mxPoint x="166.71572875253833" y="270.2842712474612" as="targetPoint" />
            <Array as="points">
              <mxPoint x="115" y="291" />
            </Array>
          </mxGeometry>
        </mxCell>
        <mxCell id="aol4XjUfY5OpFH5lJnD1-45" value="" style="endArrow=none;html=1;fontSize=25;entryX=0.964;entryY=0.296;entryDx=0;entryDy=0;strokeWidth=3;startArrow=classic;exitX=0;exitY=0;exitDx=0;exitDy=0;curved=1;entryPerimeter=0;endFill=0;startFill=1;" parent="aol4XjUfY5OpFH5lJnD1-22" target="aol4XjUfY5OpFH5lJnD1-26" edge="1">
          <mxGeometry width="50" height="50" relative="1" as="geometry">
            <mxPoint x="165.71572875253833" y="233.71572875253833" as="sourcePoint" />
            <mxPoint x="62.28427124746895" y="233.71572875253105" as="targetPoint" />
            <Array as="points">
              <mxPoint x="120" y="210" />
            </Array>
          </mxGeometry>
        </mxCell>
        <mxCell id="aol4XjUfY5OpFH5lJnD1-28" value="&lt;font face=&quot;Times New Roman&quot; style=&quot;font-size: 25px;&quot;&gt;&lt;b&gt;X&lt;sub&gt;3&lt;/sub&gt;&lt;/b&gt;&lt;/font&gt;" style="ellipse;whiteSpace=wrap;html=1;aspect=fixed;strokeWidth=2;" parent="aol4XjUfY5OpFH5lJnD1-22" vertex="1">
          <mxGeometry x="160" y="211" width="80" height="80" as="geometry" />
        </mxCell>
      </root>
    </mxGraphModel>
  </diagram>
</mxfile>
